<svg xmlns="http://www.w3.org/2000/svg" viewBox="0 0 65.07 269.1"><defs><style>.cls-1{fill:#ff7bac;}.cls-1,.cls-2{stroke:#ff3d2e;}.cls-1,.cls-2,.cls-4,.cls-6{stroke-linecap:round;stroke-linejoin:round;stroke-width:0.75px;}.cls-2,.cls-6{fill:none;}.cls-3{isolation:isolate;}.cls-4,.cls-5{fill:#fff;}.cls-4,.cls-6{stroke:#272f32;}</style></defs><title>Asset 3</title><g id="Layer_2" data-name="Layer 2"><g id="bg"><line class="cls-1" x1="40.08" y1="62.2" x2="40.08" y2="248.88"/><polygon class="cls-2" points="21.18 73.6 2.27 62.2 20.92 50.81 40.08 62.2 21.18 73.6"/><polygon class="cls-2" points="21.18 54.57 2.27 43.17 20.92 31.78 40.08 43.17 21.18 54.57"/><line class="cls-2" x1="21.18" y1="54.57" x2="21.18" y2="73.6"/><line class="cls-2" x1="40.08" y1="43.17" x2="40.08" y2="62.2"/><line class="cls-2" x1="2.27" y1="43.17" x2="2.27" y2="62.2"/><line class="cls-2" x1="20.92" y1="31.78" x2="20.92" y2="50.81"/><g class="cls-3"><g class="cls-3"><path class="cls-4" d="M30.31,31.17l-.51,2.67-2.43,2.32q.66-1.9-1.66-4.8a7.93,7.93,0,0,0-3.28-2.64,5.24,5.24,0,0,0-3-.27,7.9,7.9,0,0,0-2.47,1.1L17.78,26l2.09-1.43a7.76,7.76,0,0,1,2.47-1.09,5.06,5.06,0,0,1,3,.27,7.76,7.76,0,0,1,3.28,2.63q2.33,2.89,1.66,4.8"/></g></g><g class="cls-3"><path class="cls-5" d="M35.36,33.48l-3,5a10.19,10.19,0,0,1-3.11,3.11l-8.78,6,2.94-5,8.79-6A10.31,10.31,0,0,0,35.36,33.48Z"/><path class="cls-6" d="M35.36,33.48l-3,5a10.19,10.19,0,0,1-3.11,3.11l-8.78,6,2.94-5,8.79-6A10.31,10.31,0,0,0,35.36,33.48Z"/></g><path class="cls-4" d="M31.28,20.73a13.3,13.3,0,0,1,2.54,2.45,10.28,10.28,0,0,1,2.35,4.71,9.81,9.81,0,0,1-.14,4,8.37,8.37,0,0,1-3.78,4.74l-8.79,6L10.21,26,17,21.4a22.2,22.2,0,0,1,2.74-1.62A13.44,13.44,0,0,1,22,18.9a9.85,9.85,0,0,1,3.72-.32,11.18,11.18,0,0,1,2.78.64A11.85,11.85,0,0,1,31.28,20.73Zm-1,10.44q.66-1.91-1.66-4.8a7.76,7.76,0,0,0-3.28-2.63,5.06,5.06,0,0,0-3-.27,7.76,7.76,0,0,0-2.47,1.09L17.78,26l7.85,9.81,2.09-1.42a6.46,6.46,0,0,0,2.59-3.21"/><polygon class="cls-4" points="23.46 42.58 20.52 47.57 7.27 31 10.21 26.02 23.46 42.58"/><g class="cls-3"><polygon class="cls-4" points="4.77 13.28 7.38 18.68 2.99 14.68 0.38 9.28 4.77 13.28"/><polygon class="cls-4" points="9.24 11.39 11.86 16.79 7.38 18.68 4.77 13.28 9.24 11.39"/><polygon class="cls-4" points="21.12 6.33 23.73 11.73 15.69 15.16 13.08 9.76 21.12 6.33"/><polygon class="cls-4" points="15.42 17.02 18.03 22.41 11.86 16.79 9.24 11.39 15.42 17.02"/><path class="cls-4" d="M27.67,4.69,17.68,25l-4.39-4,2.13-4L9.24,11.39,4.77,13.28l-4.39-4L22.93.38ZM13.08,9.76l4.19,3.81,3.85-7.24-8,3.43"/><polygon class="cls-4" points="27.67 4.7 30.28 10.1 20.3 30.44 17.68 25.04 27.67 4.7"/><polygon class="cls-4" points="17.68 25.04 20.3 30.44 15.9 26.44 13.29 21.04 17.68 25.04"/></g><polygon class="cls-2" points="52.38 268.73 40.08 261.31 52.22 253.89 64.69 261.31 52.38 268.73"/><polygon class="cls-2" points="52.38 256.34 40.08 248.92 52.22 241.5 64.69 248.92 52.38 256.34"/><line class="cls-2" x1="52.38" y1="256.34" x2="52.38" y2="268.73"/><line class="cls-2" x1="64.69" y1="248.92" x2="64.69" y2="261.31"/><line class="cls-2" x1="40.08" y1="248.92" x2="40.08" y2="261.31"/><line class="cls-2" x1="52.22" y1="241.51" x2="52.22" y2="253.89"/></g></g></svg>